<svg width="358" height="48" viewBox="0 0 358 48" fill="none" xmlns="http://www.w3.org/2000/svg">
<path d="M72.4004 31L78.2012 16.9961H80.3984L86.1992 31H83.9043L82.4004 27.2988H76.1992L74.6953 31H72.4004ZM79.3047 19.4961L77 25.2969H81.5996L79.3047 19.4961ZM89.9102 26.9961V31H87.9082V21.4004H89.9102V25.1992H94.6074V21.4004H96.6094V31H94.6074V26.9961H89.9102ZM107.117 31H105.115V30.0039C105.089 30.0299 105.044 30.0723 104.979 30.1309C104.92 30.1895 104.796 30.2871 104.607 30.4238C104.425 30.554 104.227 30.6745 104.012 30.7852C103.797 30.8893 103.527 30.9837 103.201 31.0684C102.876 31.153 102.547 31.1953 102.215 31.1953C101.238 31.1953 100.428 30.9121 99.7832 30.3457C99.1387 29.7793 98.8164 29.1315 98.8164 28.4023C98.8164 27.6146 99.0638 26.9538 99.5586 26.4199C100.06 25.8861 100.743 25.5475 101.609 25.4043L105.115 24.7988C105.115 24.291 104.926 23.8646 104.549 23.5195C104.178 23.1745 103.699 23.002 103.113 23.002C102.605 23.002 102.143 23.1094 101.727 23.3242C101.316 23.5326 101.033 23.7441 100.877 23.959L100.613 24.3008L99.3145 23.002C99.3535 22.9499 99.4056 22.8848 99.4707 22.8066C99.5423 22.722 99.6953 22.5788 99.9297 22.377C100.171 22.1686 100.424 21.9831 100.691 21.8203C100.958 21.6576 101.31 21.5143 101.746 21.3906C102.189 21.2604 102.645 21.1953 103.113 21.1953C104.285 21.1953 105.245 21.5436 105.994 22.2402C106.743 22.9303 107.117 23.7832 107.117 24.7988V31ZM102.518 29.3984C103.331 29.3984 103.966 29.1576 104.422 28.6758C104.884 28.1875 105.115 27.4941 105.115 26.5957V26.4004L102.01 26.8984C101.652 26.9635 101.362 27.11 101.141 27.3379C100.919 27.5658 100.809 27.8522 100.809 28.1973C100.809 28.5163 100.962 28.7962 101.268 29.0371C101.58 29.278 101.997 29.3984 102.518 29.3984ZM111.023 21.4004H118.426V31H116.424V23.1973H113.025V24.2031C113.025 26.0326 112.879 27.4779 112.586 28.5391C112.299 29.5938 111.928 30.3001 111.473 30.6582C111.023 31.0163 110.441 31.1953 109.725 31.1953C109.549 31.1953 109.36 31.179 109.158 31.1465C108.963 31.1139 108.81 31.0781 108.699 31.0391L108.523 31V29.0957C108.79 29.1608 109.021 29.1966 109.217 29.2031C109.627 29.2031 109.949 29.0924 110.184 28.8711C110.424 28.6497 110.623 28.1615 110.779 27.4062C110.942 26.6445 111.023 25.5768 111.023 24.2031V21.4004ZM128.23 21.4004H130.027V31H128.025V24.7012L123.025 31H121.229V21.4004H123.23V27.6992L128.23 21.4004ZM131.834 23.1973V21.4004H140.428V23.1973H137.127V31H135.135V23.1973H131.834ZM149.227 21.4004H151.023V31H149.021V24.7012L144.021 31H142.225V21.4004H144.227V27.6992L149.227 21.4004ZM159.832 31V27.3965C159.168 27.8652 158.367 28.0996 157.43 28.0996C156.271 28.0996 155.346 27.7513 154.656 27.0547C153.973 26.3516 153.631 25.401 153.631 24.2031V21.4004H155.623V24.2031C155.623 24.8021 155.815 25.3034 156.199 25.707C156.59 26.1042 157.065 26.3027 157.625 26.3027C158.035 26.3027 158.423 26.2376 158.787 26.1074C159.158 25.9707 159.425 25.834 159.588 25.6973L159.832 25.502V21.4004H161.824V31H159.832ZM173.523 26.8984H166.023C166.128 27.5755 166.46 28.1615 167.02 28.6562C167.586 29.151 168.257 29.3984 169.031 29.3984C169.591 29.3984 170.112 29.2715 170.594 29.0176C171.082 28.7637 171.427 28.5163 171.629 28.2754L171.932 27.9043L173.23 29.2031C173.191 29.2552 173.13 29.3301 173.045 29.4277C172.967 29.5189 172.794 29.6784 172.527 29.9062C172.26 30.1276 171.977 30.3262 171.678 30.502C171.378 30.6712 170.988 30.8307 170.506 30.9805C170.031 31.1237 169.539 31.1953 169.031 31.1953C167.671 31.1953 166.495 30.6973 165.506 29.7012C164.523 28.6986 164.031 27.4974 164.031 26.0977C164.031 24.75 164.51 23.5977 165.467 22.6406C166.43 21.6771 167.583 21.1953 168.924 21.1953C170.271 21.1953 171.391 21.6445 172.283 22.543C173.182 23.4349 173.631 24.5547 173.631 25.9023L173.523 26.8984ZM168.924 22.9043C168.201 22.9043 167.592 23.1191 167.098 23.5488C166.609 23.972 166.281 24.5221 166.111 25.1992H171.668C171.551 24.5221 171.248 23.972 170.76 23.5488C170.271 23.1191 169.66 22.9043 168.924 22.9043ZM176.707 29.7109C175.717 28.7148 175.223 27.5462 175.223 26.2051C175.223 24.8574 175.717 23.6855 176.707 22.6895C177.703 21.6934 178.875 21.1953 180.223 21.1953C180.971 21.1953 181.668 21.3581 182.312 21.6836C182.957 22.0026 183.419 22.3216 183.699 22.6406L184.119 23.0996L182.82 24.3984C182.755 24.2943 182.654 24.1673 182.518 24.0176C182.387 23.8613 182.098 23.653 181.648 23.3926C181.206 23.1322 180.73 23.002 180.223 23.002C179.409 23.002 178.702 23.3112 178.104 23.9297C177.511 24.5482 177.215 25.3066 177.215 26.2051C177.215 27.097 177.511 27.8522 178.104 28.4707C178.702 29.0892 179.409 29.3984 180.223 29.3984C180.73 29.3984 181.206 29.2715 181.648 29.0176C182.098 28.7637 182.42 28.5163 182.615 28.2754L182.918 27.9043L184.217 29.2031C184.178 29.2552 184.119 29.3301 184.041 29.4277C183.963 29.5189 183.794 29.6784 183.533 29.9062C183.273 30.1276 182.999 30.3262 182.713 30.502C182.426 30.6712 182.055 30.8307 181.6 30.9805C181.144 31.1237 180.685 31.1953 180.223 31.1953C178.875 31.1953 177.703 30.7005 176.707 29.7109ZM194.715 21.4004L191.014 25.4043L195.008 31H192.811L189.715 26.7031L188.211 28.3047V31H186.209V21.4004H188.211V25.6973L192.312 21.4004H194.715ZM203.602 21.4004H205.398V31H203.396V24.7012L198.396 31H196.6V21.4004H198.602V27.6992L203.602 21.4004ZM215.203 21.4004H217V31H214.998V24.7012L209.998 31H208.201V21.4004H210.203V27.6992L215.203 21.4004ZM211.6 18.002C211.867 18.2689 212.199 18.4023 212.596 18.4023C212.999 18.4023 213.335 18.2689 213.602 18.002C213.868 17.735 214.002 17.3997 214.002 16.9961H215.506C215.506 17.7969 215.232 18.4642 214.686 18.998C214.139 19.5319 213.445 19.7988 212.605 19.7988C211.766 19.7988 211.072 19.5319 210.525 18.998C209.979 18.4642 209.705 17.7969 209.705 16.9961H211.199C211.199 17.3932 211.333 17.7285 211.6 18.002ZM223.807 31V21.4004H225.809V29.2031H230.311V21.4004H232.312V29.2031H233.709V33.4023H231.707V31H223.807ZM244.598 26.8984H237.098C237.202 27.5755 237.534 28.1615 238.094 28.6562C238.66 29.151 239.331 29.3984 240.105 29.3984C240.665 29.3984 241.186 29.2715 241.668 29.0176C242.156 28.7637 242.501 28.5163 242.703 28.2754L243.006 27.9043L244.305 29.2031C244.266 29.2552 244.204 29.3301 244.119 29.4277C244.041 29.5189 243.868 29.6784 243.602 29.9062C243.335 30.1276 243.051 30.3262 242.752 30.502C242.452 30.6712 242.062 30.8307 241.58 30.9805C241.105 31.1237 240.613 31.1953 240.105 31.1953C238.745 31.1953 237.57 30.6973 236.58 29.7012C235.597 28.6986 235.105 27.4974 235.105 26.0977C235.105 24.75 235.584 23.5977 236.541 22.6406C237.505 21.6771 238.657 21.1953 239.998 21.1953C241.346 21.1953 242.465 21.6445 243.357 22.543C244.256 23.4349 244.705 24.5547 244.705 25.9023L244.598 26.8984ZM239.998 22.9043C239.275 22.9043 238.667 23.1191 238.172 23.5488C237.684 23.972 237.355 24.5221 237.186 25.1992H242.742C242.625 24.5221 242.322 23.972 241.834 23.5488C241.346 23.1191 240.734 22.9043 239.998 22.9043ZM248.895 26.9961V31H246.893V21.4004H248.895V25.1992H253.592V21.4004H255.594V31H253.592V26.9961H248.895ZM257.4 23.1973V21.4004H265.994V23.1973H262.693V31H260.701V23.1973H257.4ZM272.889 31.1953C272.531 31.1953 272.182 31.153 271.844 31.0684C271.505 30.9837 271.215 30.8796 270.975 30.7559C270.734 30.6257 270.519 30.4954 270.33 30.3652C270.148 30.2285 270.014 30.1211 269.93 30.043L269.793 29.8965V35.1992H267.791V21.4004H269.793V22.5039C269.884 22.4128 270.011 22.2923 270.174 22.1426C270.343 21.9928 270.698 21.7975 271.238 21.5566C271.779 21.3158 272.329 21.1953 272.889 21.1953C274.158 21.1953 275.258 21.6836 276.189 22.6602C277.127 23.6302 277.596 24.8086 277.596 26.1953C277.596 27.582 277.127 28.7637 276.189 29.7402C275.258 30.7103 274.158 31.1953 272.889 31.1953ZM274.715 23.9395C274.129 23.3145 273.455 23.002 272.693 23.002C271.932 23.002 271.258 23.3145 270.672 23.9395C270.086 24.5645 269.793 25.3197 269.793 26.2051C269.793 27.084 270.086 27.8359 270.672 28.4609C271.258 29.0859 271.932 29.3984 272.693 29.3984C273.455 29.3984 274.129 29.0859 274.715 28.4609C275.301 27.8359 275.594 27.084 275.594 26.2051C275.594 25.3197 275.301 24.5645 274.715 23.9395ZM291.785 23.8027L297.186 16.9961H299.09V31H296.893V20.8047L291.785 27.2012L286.688 20.8047V31H284.49V16.9961H286.385L291.785 23.8027ZM308.895 28.4707C309.487 27.8522 309.783 27.097 309.783 26.2051C309.783 25.3066 309.487 24.5482 308.895 23.9297C308.302 23.3112 307.599 23.002 306.785 23.002C305.971 23.002 305.265 23.3112 304.666 23.9297C304.074 24.5482 303.777 25.3066 303.777 26.2051C303.777 27.097 304.074 27.8522 304.666 28.4707C305.265 29.0892 305.971 29.3984 306.785 29.3984C307.599 29.3984 308.302 29.0892 308.895 28.4707ZM303.27 29.7109C302.28 28.7148 301.785 27.5462 301.785 26.2051C301.785 24.8574 302.28 23.6855 303.27 22.6895C304.266 21.6934 305.438 21.1953 306.785 21.1953C308.133 21.1953 309.301 21.6934 310.291 22.6895C311.287 23.6855 311.785 24.8574 311.785 26.2051C311.785 27.5462 311.287 28.7148 310.291 29.7109C309.301 30.7005 308.133 31.1953 306.785 31.1953C305.438 31.1953 304.266 30.7005 303.27 29.7109ZM314.871 29.7109C313.882 28.7148 313.387 27.5462 313.387 26.2051C313.387 24.8574 313.882 23.6855 314.871 22.6895C315.867 21.6934 317.039 21.1953 318.387 21.1953C319.135 21.1953 319.832 21.3581 320.477 21.6836C321.121 22.0026 321.583 22.3216 321.863 22.6406L322.283 23.0996L320.984 24.3984C320.919 24.2943 320.818 24.1673 320.682 24.0176C320.551 23.8613 320.262 23.653 319.812 23.3926C319.37 23.1322 318.895 23.002 318.387 23.002C317.573 23.002 316.867 23.3112 316.268 23.9297C315.675 24.5482 315.379 25.3066 315.379 26.2051C315.379 27.097 315.675 27.8522 316.268 28.4707C316.867 29.0892 317.573 29.3984 318.387 29.3984C318.895 29.3984 319.37 29.2715 319.812 29.0176C320.262 28.7637 320.584 28.5163 320.779 28.2754L321.082 27.9043L322.381 29.2031C322.342 29.2552 322.283 29.3301 322.205 29.4277C322.127 29.5189 321.958 29.6784 321.697 29.9062C321.437 30.1276 321.163 30.3262 320.877 30.502C320.59 30.6712 320.219 30.8307 319.764 30.9805C319.308 31.1237 318.849 31.1953 318.387 31.1953C317.039 31.1953 315.867 30.7005 314.871 29.7109ZM332.879 21.4004L329.178 25.4043L333.172 31H330.975L327.879 26.7031L326.375 28.3047V31H324.373V21.4004H326.375V25.6973L330.477 21.4004H332.879ZM334.764 21.4004H339.363C340.281 21.4004 341.01 21.638 341.551 22.1133C342.091 22.582 342.361 23.1777 342.361 23.9004C342.361 24.3105 342.27 24.6849 342.088 25.0234C341.912 25.3555 341.73 25.5866 341.541 25.7168L341.268 25.9023C341.307 25.9154 341.362 25.9382 341.434 25.9707C341.505 26.0033 341.635 26.0879 341.824 26.2246C342.013 26.3548 342.176 26.5013 342.312 26.6641C342.456 26.8203 342.583 27.0352 342.693 27.3086C342.811 27.582 342.869 27.8783 342.869 28.1973C342.869 29.0241 342.573 29.6979 341.98 30.2188C341.395 30.7396 340.59 31 339.568 31H334.764V21.4004ZM339.568 26.7031H336.766V29.3008H339.568C339.965 29.3008 340.281 29.1836 340.516 28.9492C340.75 28.7148 340.867 28.3991 340.867 28.002C340.867 27.6439 340.747 27.3379 340.506 27.084C340.265 26.8301 339.952 26.7031 339.568 26.7031ZM340.096 24.8379C340.278 24.6556 340.369 24.4115 340.369 24.1055C340.369 23.793 340.278 23.5488 340.096 23.373C339.913 23.1908 339.669 23.0996 339.363 23.0996H336.766V25.1016H339.363C339.669 25.1016 339.913 25.0137 340.096 24.8379ZM347.059 29.3008H349.158C349.614 29.3008 349.995 29.1478 350.301 28.8418C350.607 28.5358 350.76 28.1549 350.76 27.6992C350.76 27.2435 350.607 26.8626 350.301 26.5566C349.995 26.2507 349.614 26.0977 349.158 26.0977H347.059V29.3008ZM351.766 25.3359C352.43 25.9544 352.762 26.7454 352.762 27.709C352.762 28.666 352.43 29.4538 351.766 30.0723C351.108 30.6908 350.239 31 349.158 31H345.057V21.4004H347.059V24.3984H349.158C350.239 24.3984 351.108 24.7109 351.766 25.3359ZM356.16 21.4004V31H354.158V21.4004H356.16Z" fill="#3E3E41"/>
<path d="M0 9.19112C0 4.11557 3.94713 0 8.81635 0H39.1837C44.0529 0 48 4.11521 48 9.19112V38.8085C48 43.8848 44.0529 48 39.1837 48H8.81635C3.94713 48 0 43.8848 0 38.8085V9.19148V9.19112Z" fill="url(#paint0_linear_1854_26106)"/>
<path fill-rule="evenodd" clip-rule="evenodd" d="M43.7159 5.93213C44.1944 6.21497 44.5428 6.67948 44.6844 7.2235C44.8261 7.76752 44.7495 8.34648 44.4714 8.83304L29.7883 34.5162L24.7897 28.0452L18.9309 37.9717L13.8213 31.3585L7.80218 40.0552C7.6456 40.2859 7.44562 40.4828 7.21378 40.6345C6.98195 40.7862 6.72286 40.8897 6.45148 40.939C6.18009 40.9883 5.90179 40.9824 5.63265 40.9217C5.36351 40.861 5.10887 40.7467 4.88342 40.5854C4.65797 40.424 4.4662 40.2189 4.31916 39.9817C4.17213 39.7446 4.07276 39.4802 4.02678 39.2038C3.98081 38.9274 3.98914 38.6445 4.05131 38.3714C4.11347 38.0983 4.22823 37.8404 4.38896 37.6127L13.6377 24.2498L18.4697 30.505L24.3284 20.5782L29.271 26.9756L40.8627 6.69997C41.0005 6.45905 41.1835 6.24808 41.4015 6.07911C41.6194 5.91013 41.868 5.78646 42.1329 5.71516C42.3979 5.64386 42.674 5.62632 42.9456 5.66355C43.2172 5.70078 43.479 5.79204 43.7159 5.93213V5.93213Z" fill="white"/>
<defs>
<linearGradient id="paint0_linear_1854_26106" x1="24" y1="0" x2="24" y2="48" gradientUnits="userSpaceOnUse">
<stop stop-color="#007DCD"/>
<stop offset="1" stop-color="#FF0000"/>
</linearGradient>
</defs>
</svg>
